<?xml version="1.0" standalone="yes"?>
<svg xmlns="http://www.w3.org/2000/svg" width="775" height="375">
<path style="fill:#ffffff; stroke:none;" d="M0 0L0 375L775 375L775 0L0 0z"/>
<path style="fill:#a4dbf2; stroke:none;" d="M264 23L264 24L478 24L458 23L415 23L264 23M259 24L260 25L259 24z"/>
<path style="fill:#76c9ec; stroke:none;" d="M260 24L261 25L260 24z"/>
<path style="fill:#57bde7; stroke:none;" d="M261.667 24.3333L262.333 24.6667L261.667 24.3333z"/>
<path style="fill:#2aabe1; stroke:none;" d="M269 314C251.137 259.194 276.193 211.038 325 183.059C357.001 164.715 394.142 156.161 430 150.561C458.273 146.145 485.27 142 514 142L514 75C514 61.0474 513.824 46.1978 502.875 35.7546C486.143 19.7957 461.417 24 440 24L294 24C272.436 24 246.907 20.5222 234.066 42.0008C222.916 60.6497 228 88.9835 228 110L228 226C228 245.156 224.99 267.281 229.532 286C233.944 304.188 251.628 314 269 314z"/>
<path style="fill:#57bde7; stroke:none;" d="M480 24L481 25L480 24z"/>
<path style="fill:#a4dbf2; stroke:none;" d="M481.667 24.3333L482.333 24.6667L481.667 24.3333z"/>
<path style="fill:#57bde7; stroke:none;" d="M256 25L257 26L256 25M484 25L485 26L484 25z"/>
<path style="fill:#76c9ec; stroke:none;" d="M485 25L486 26L485 25z"/>
<path style="fill:#a4dbf2; stroke:none;" d="M486 25L487 26L486 25z"/>
<path style="fill:#76c9ec; stroke:none;" d="M487 26L488 27L487 26z"/>
<path style="fill:#a4dbf2; stroke:none;" d="M488 26L489 27L488 26M248 27L249 28L248 27z"/>
<path style="fill:#76c9ec; stroke:none;" d="M493 27L494 28L493 27z"/>
<path style="fill:#a4dbf2; stroke:none;" d="M246 28L247 29L246 28M494 28L495 29L494 28z"/>
<path style="fill:#57bde7; stroke:none;" d="M495 29L496 30L495 29z"/>
<path style="fill:#a4dbf2; stroke:none;" d="M244 30L245 31L244 30z"/>
<path style="fill:#76c9ec; stroke:none;" d="M243 31L244 32L243 31z"/>
<path style="fill:#57bde7; stroke:none;" d="M497 31L498 32L497 31M242 32L243 33L242 32z"/>
<path style="fill:#a4dbf2; stroke:none;" d="M499 32L500 33L499 32M500 33L501 34L500 33M240 34L241 35L240 34z"/>
<path style="fill:#76c9ec; stroke:none;" d="M501 34L502 35L501 34z"/>
<path style="fill:#a4dbf2; stroke:none;" d="M238 35L239 36L238 35z"/>
<path style="fill:#76c9ec; stroke:none;" d="M502 35L503 36L502 35z"/>
<path style="fill:#a4dbf2; stroke:none;" d="M237 36L238 37L237 36z"/>
<path style="fill:#76c9ec; stroke:none;" d="M503 36L504 37L503 36z"/>
<path style="fill:#a4dbf2; stroke:none;" d="M505 37L506 38L505 37z"/>
<path style="fill:#57bde7; stroke:none;" d="M236 38L237 39L236 38z"/>
<path style="fill:#76c9ec; stroke:none;" d="M235 39L236 40L235 39z"/>
<path style="fill:#a4dbf2; stroke:none;" d="M234 40L235 41L234 40z"/>
<path style="fill:#76c9ec; stroke:none;" d="M506 40L507 41L506 40z"/>
<path style="fill:#a4dbf2; stroke:none;" d="M507 41L508 42L507 41M233 42L234 43L233 42z"/>
<path style="fill:#76c9ec; stroke:none;" d="M508 42L509 43L508 42z"/>
<path style="fill:#57bde7; stroke:none;" d="M233 43L234 44L233 43z"/>
<path style="fill:#a4dbf2; stroke:none;" d="M232 44L233 45L232 44M231 46L232 47L231 46z"/>
<path style="fill:#57bde7; stroke:none;" d="M509 46L510 47L509 46z"/>
<path style="fill:#a4dbf2; stroke:none;" d="M230 47L231 48L230 47z"/>
<path style="fill:#76c9ec; stroke:none;" d="M510 47L511 48L510 47z"/>
<path style="fill:#57bde7; stroke:none;" d="M230 48L231 49L230 48z"/>
<path style="fill:#a4dbf2; stroke:none;" d="M511 49L512 50L511 49z"/>
<path style="fill:#57bde7; stroke:none;" d="M229 50L230 51L229 50z"/>
<path style="fill:#a4dbf2; stroke:none;" d="M512 51L513 52L512 51z"/>
<path style="fill:#57bde7; stroke:none;" d="M512 52L513 53L512 52z"/>
<path style="fill:#a4dbf2; stroke:none;" d="M513.333 54.6667L513.667 55.3333L513.333 54.6667M228 56L229 57L228 56z"/>
<path style="fill:#76c9ec; stroke:none;" d="M513 56L514 57L513 56M228 57L229 58L228 57z"/>
<path style="fill:#a4dbf2; stroke:none;" d="M263 58L264 59L263 58z"/>
<path style="fill:#ffffff; stroke:none;" d="M263 126L279 126L279 58L264.028 59.6034L263 78L263 126z"/>
<path style="fill:#57bde7; stroke:none;" d="M312 58L313 59L312 58z"/>
<path style="fill:#a4dbf2; stroke:none;" d="M313 58L314 59L313 58z"/>
<path style="fill:#ffffff; stroke:none;" d="M350 113L338 104C335.572 106.938 332.576 109.414 329 110.914C300.221 122.991 297.884 61.4991 330 74.6343C333.498 76.0651 335.778 78.016 338 81C350.95 71.8015 347.736 61.1445 332 58.3295C318.793 55.967 302.151 59.8561 294.819 72.0046C287.241 84.5625 285.783 99.8472 294.39 112.424C307.279 131.256 337.22 132.158 350 113z"/>
<path style="fill:#a4dbf2; stroke:none;" d="M333 58L334 59L333 58z"/>
<path style="fill:#57bde7; stroke:none;" d="M334 58L335 59L334 58z"/>
<path style="fill:#a4dbf2; stroke:none;" d="M360 58L361 59L360 58z"/>
<path style="fill:#ffffff; stroke:none;" d="M360 126C374.445 126 392.368 128.837 405.999 123.235C423.134 116.194 416.619 97.861 405 90C417.146 85.0019 414.19 68.6236 404.996 62.3758C395.853 56.1627 382.467 58 372 58C368.811 58 362.339 56.7907 360.603 60.3179C358.191 65.2206 360 74.6039 360 80L360 126z"/>
<path style="fill:#a4dbf2; stroke:none;" d="M393 58L393 59L396 59L393 58z"/>
<path style="fill:#76c9ec; stroke:none;" d="M396 58L397 59L396 58M447 58L448 59L447 58z"/>
<path style="fill:#a4dbf2; stroke:none;" d="M448 58L449 59L448 58z"/>
<path style="fill:#ffffff; stroke:none;" d="M485 113L473 104C470.435 106.862 467.575 109.226 464 110.775C435.841 122.982 432.432 61.8458 464.999 74.7731C468.513 76.1681 470.661 78.0973 473 81C486.372 71.5022 482.051 60.3268 466 58.1883C451.656 56.2772 436.172 60.875 428.39 74C406.795 110.425 460.472 148.57 485 113z"/>
<path style="fill:#a4dbf2; stroke:none;" d="M468 58L469 59L468 58z"/>
<path style="fill:#76c9ec; stroke:none;" d="M469 58L470 59L469 58M310 59L311 60L310 59z"/>
<path style="fill:#a4dbf2; stroke:none;" d="M311 59L312 60L311 59M336 59L337 60L336 59z"/>
<path style="fill:#57bde7; stroke:none;" d="M337 59L338 60L337 59z"/>
<path style="fill:#a4dbf2; stroke:none;" d="M398 59L399 60L398 59z"/>
<path style="fill:#76c9ec; stroke:none;" d="M399 59L400 60L399 59M445 59L446 60L445 59z"/>
<path style="fill:#a4dbf2; stroke:none;" d="M446 59L447 60L446 59M471 59L472 60L471 59M308 60L309 61L308 60z"/>
<path style="fill:#76c9ec; stroke:none;" d="M402 60L403 61L402 60z"/>
<path style="fill:#57bde7; stroke:none;" d="M442 60L443 61L442 60z"/>
<path style="fill:#a4dbf2; stroke:none;" d="M443 60L444 61L443 60M472 60L473 61L472 60z"/>
<path style="fill:#57bde7; stroke:none;" d="M473 60L474 61L473 60M306 61L307 62L306 61z"/>
<path style="fill:#a4dbf2; stroke:none;" d="M307 61L308 62L307 61M339 61L340 62L339 61M404 61L405 62L404 61z"/>
<path style="fill:#57bde7; stroke:none;" d="M441 61L442 62L441 61z"/>
<path style="fill:#a4dbf2; stroke:none;" d="M474 61L475 62L474 61z"/>
<path style="fill:#57bde7; stroke:none;" d="M475 61L476 62L475 61z"/>
<path style="fill:#a4dbf2; stroke:none;" d="M305 62L306 63L305 62M341 62L342 63L341 62M440 62L441 63L440 62M476 62L477 63L476 62z"/>
<path style="fill:#57bde7; stroke:none;" d="M343 63L344 64L343 63z"/>
<path style="fill:#76c9ec; stroke:none;" d="M478 63L479 64L478 63z"/>
<path style="fill:#57bde7; stroke:none;" d="M302 64L303 65L302 64z"/>
<path style="fill:#a4dbf2; stroke:none;" d="M344 64L345 65L344 64z"/>
<path style="fill:#57bde7; stroke:none;" d="M407 64L408 65L407 64z"/>
<path style="fill:#a4dbf2; stroke:none;" d="M438 64L439 65L438 64z"/>
<path style="fill:#76c9ec; stroke:none;" d="M301 65L302 66L301 65z"/>
<path style="fill:#57bde7; stroke:none;" d="M345 65L346 66L345 65z"/>
<path style="fill:#76c9ec; stroke:none;" d="M408 65L409 66L408 65z"/>
<path style="fill:#57bde7; stroke:none;" d="M436 65L437 66L436 65z"/>
<path style="fill:#a4dbf2; stroke:none;" d="M347 66L348 67L347 66M434 66L435 67L434 66M482 66L483 67L482 66M348 67L349 68L348 67M411 67L412 68L411 67M433 67L434 68L433 67M483 67L484 68L483 67M349 68L350 69L349 68M432 68L433 69L432 68M484 68L485 69L484 68M431 69L432 70L431 69z"/>
<path style="fill:#57bde7; stroke:none;" d="M484 69L485 70L484 69z"/>
<path style="fill:#76c9ec; stroke:none;" d="M430 70L431 71L430 70z"/>
<path style="fill:#57bde7; stroke:none;" d="M483 70L484 71L483 70z"/>
<path style="fill:#76c9ec; stroke:none;" d="M295 71L296 72L295 71z"/>
<path style="fill:#57bde7; stroke:none;" d="M347 71L348 72L347 71z"/>
<path style="fill:#76c9ec; stroke:none;" d="M412 71L413 72L412 71M482 71L483 72L482 71z"/>
<path style="fill:#57bde7; stroke:none;" d="M294 72L295 73L294 72M346 72L347 73L346 72z"/>
<path style="fill:#a4dbf2; stroke:none;" d="M412 72L413 73L412 72z"/>
<path style="fill:#76c9ec; stroke:none;" d="M481 72L482 73L481 72M293 73L294 74L293 73z"/>
<path style="fill:#a4dbf2; stroke:none;" d="M318.667 73.3333L319.333 73.6667L318.667 73.3333z"/>
<path style="fill:#57bde7; stroke:none;" d="M320 73L321 74L320 73M324.667 73.3333L325.333 73.6667L324.667 73.3333z"/>
<path style="fill:#76c9ec; stroke:none;" d="M326 73L327 74L326 73z"/>
<path style="fill:#a4dbf2; stroke:none;" d="M327 73L328 74L327 73M345 73L346 74L345 73z"/>
<path style="fill:#2aabe1; stroke:none;" d="M375 73L375 85C380.199 85 391.14 87.0849 395.486 83.9722C399.228 81.2923 397.684 75.5254 393.891 73.8935C388.579 71.6077 380.685 73 375 73z"/>
<path style="fill:#57bde7; stroke:none;" d="M393 73L394 74L393 73z"/>
<path style="fill:#a4dbf2; stroke:none;" d="M394 73L395 74L394 73z"/>
<path style="fill:#57bde7; stroke:none;" d="M428 73L429 74L428 73z"/>
<path style="fill:#a4dbf2; stroke:none;" d="M454 73L455 74L454 73z"/>
<path style="fill:#76c9ec; stroke:none;" d="M455 73L456 74L455 73z"/>
<path style="fill:#57bde7; stroke:none;" d="M456 73L457 74L456 73M459.667 73.3333L460.333 73.6667L459.667 73.3333z"/>
<path style="fill:#76c9ec; stroke:none;" d="M461 73L462 74L461 73z"/>
<path style="fill:#a4dbf2; stroke:none;" d="M462 73L463 74L462 73z"/>
<path style="fill:#76c9ec; stroke:none;" d="M316 74L317 75L316 74z"/>
<path style="fill:#a4dbf2; stroke:none;" d="M396 74L397 75L396 74z"/>
<path style="fill:#76c9ec; stroke:none;" d="M451 74L452 75L451 74M313 75L314 76L313 75M332 75L333 76L332 75z"/>
<path style="fill:#a4dbf2; stroke:none;" d="M448 75L449 76L448 75z"/>
<path style="fill:#76c9ec; stroke:none;" d="M467 75L468 76L467 75z"/>
<path style="fill:#a4dbf2; stroke:none;" d="M292 76L293 77L292 76M334 76L335 77L334 76z"/>
<path style="fill:#76c9ec; stroke:none;" d="M397 76L398 77L397 76z"/>
<path style="fill:#57bde7; stroke:none;" d="M447 76L448 77L447 76z"/>
<path style="fill:#a4dbf2; stroke:none;" d="M469 76L470 77L469 76z"/>
<path style="fill:#57bde7; stroke:none;" d="M478 76L479 77L478 76M291 77L292 78L291 77z"/>
<path style="fill:#76c9ec; stroke:none;" d="M335 77L336 78L335 77z"/>
<path style="fill:#57bde7; stroke:none;" d="M342 77L343 78L342 77M470 77L471 78L470 77z"/>
<path style="fill:#76c9ec; stroke:none;" d="M477 77L478 78L477 77z"/>
<path style="fill:#a4dbf2; stroke:none;" d="M291 78L292 79L291 78z"/>
<path style="fill:#57bde7; stroke:none;" d="M336 78L337 79L336 78z"/>
<path style="fill:#76c9ec; stroke:none;" d="M341 78L342 79L341 78M426 78L427 79L426 78z"/>
<path style="fill:#a4dbf2; stroke:none;" d="M476 78L477 79L476 78M340 79L341 80L340 79M475 79L476 80L475 79z"/>
<path style="fill:#76c9ec; stroke:none;" d="M290 80L291 81L290 80z"/>
<path style="fill:#a4dbf2; stroke:none;" d="M339 80L340 81L339 80z"/>
<path style="fill:#57bde7; stroke:none;" d="M444 80L445 81L444 80z"/>
<path style="fill:#76c9ec; stroke:none;" d="M472 80L473 81L472 80z"/>
<path style="fill:#a4dbf2; stroke:none;" d="M474 80L475 81L474 80z"/>
<path style="fill:#76c9ec; stroke:none;" d="M397 81L398 82L397 81z"/>
<path style="fill:#a4dbf2; stroke:none;" d="M412 81L413 82L412 81z"/>
<path style="fill:#57bde7; stroke:none;" d="M289 82L290 83L289 82z"/>
<path style="fill:#76c9ec; stroke:none;" d="M412 82L413 83L412 82M442 82L443 83L442 82z"/>
<path style="fill:#a4dbf2; stroke:none;" d="M289.333 83.6667L289.667 84.3333L289.333 83.6667M307 83L308 84L307 83z"/>
<path style="fill:#76c9ec; stroke:none;" d="M424 83L425 84L424 83M307 84L308 85L307 84z"/>
<path style="fill:#a4dbf2; stroke:none;" d="M396 84L397 85L396 84M424 84L425 85L424 84z"/>
<path style="fill:#57bde7; stroke:none;" d="M288 85L289 86L288 85z"/>
<path style="fill:#a4dbf2; stroke:none;" d="M306 85L307 86L306 85z"/>
<path style="fill:#76c9ec; stroke:none;" d="M375 85L375 86L390 86L375 85z"/>
<path style="fill:#a4dbf2; stroke:none;" d="M390 85L391 86L390 85z"/>
<path style="fill:#76c9ec; stroke:none;" d="M411 85L412 86L411 85M288 86L289 87L288 86z"/>
<path style="fill:#57bde7; stroke:none;" d="M306 86L307 87L306 86z"/>
<path style="fill:#a4dbf2; stroke:none;" d="M410 86L411 87L410 86z"/>
<path style="fill:#57bde7; stroke:none;" d="M423 86L424 87L423 86z"/>
<path style="fill:#a4dbf2; stroke:none;" d="M441 86L442 87L441 86M288.333 87.6667L288.667 88.3333L288.333 87.6667z"/>
<path style="fill:#76c9ec; stroke:none;" d="M423.333 87.6667L423.667 88.3333L423.333 87.6667z"/>
<path style="fill:#57bde7; stroke:none;" d="M441 87L442 88L441 87z"/>
<path style="fill:#a4dbf2; stroke:none;" d="M305.333 89.6667L305.667 90.3333L305.333 89.6667M406 89L407 90L406 89M423 89L423 92L424 92L423 89M405 90L406 91L405 90M440 90L440 95L441 95L440 90z"/>
<path style="fill:#76c9ec; stroke:none;" d="M305 91L305 94L306 94L305 91M407 91L408 92L407 91z"/>
<path style="fill:#a4dbf2; stroke:none;" d="M408 92L409 93L408 92z"/>
<path style="fill:#57bde7; stroke:none;" d="M409 92L410 93L409 92z"/>
<path style="fill:#76c9ec; stroke:none;" d="M410 93L411 94L410 93z"/>
<path style="fill:#a4dbf2; stroke:none;" d="M305.333 94.6667L305.667 95.3333L305.333 94.6667M411 94L412 95L411 94M423 94L423 97L424 97L423 94M288 96L289 97L288 96z"/>
<path style="fill:#76c9ec; stroke:none;" d="M288 97L289 98L288 97z"/>
<path style="fill:#57bde7; stroke:none;" d="M306 97L307 98L306 97M414 97L415 98L414 97M423.333 97.6667L423.667 98.3333L423.333 97.6667z"/>
<path style="fill:#76c9ec; stroke:none;" d="M441 97L442 98L441 97z"/>
<path style="fill:#57bde7; stroke:none;" d="M288 98L289 99L288 98z"/>
<path style="fill:#a4dbf2; stroke:none;" d="M306 98L307 99L306 98z"/>
<path style="fill:#2aabe1; stroke:none;" d="M375 98L375 112C381.126 112 392.741 114.225 397.852 110.397C401.958 107.321 401.177 101.518 396.671 99.3441C390.614 96.4217 381.554 98 375 98z"/>
<path style="fill:#57bde7; stroke:none;" d="M394.667 98.3333L395.333 98.6667L394.667 98.3333z"/>
<path style="fill:#a4dbf2; stroke:none;" d="M396 98L397 99L396 98z"/>
<path style="fill:#57bde7; stroke:none;" d="M415 99L416 100L415 99M307 100L308 101L307 100M398 100L399 101L398 100z"/>
<path style="fill:#a4dbf2; stroke:none;" d="M415 100L416 101L415 100M424.333 100.667L424.667 101.333L424.333 100.667M289 101L290 102L289 101M307 101L308 102L307 101z"/>
<path style="fill:#76c9ec; stroke:none;" d="M289 102L290 103L289 102z"/>
<path style="fill:#57bde7; stroke:none;" d="M400 102L401 103L400 102M416 102L417 103L416 102M424 102L425 103L424 102z"/>
<path style="fill:#76c9ec; stroke:none;" d="M442 102L443 103L442 102M416 103L417 104L416 103z"/>
<path style="fill:#a4dbf2; stroke:none;" d="M290 104L291 105L290 104z"/>
<path style="fill:#76c9ec; stroke:none;" d="M340 104L341 105L340 104M401 104L402 105L401 104z"/>
<path style="fill:#57bde7; stroke:none;" d="M425 104L426 105L425 104M444 104L445 105L444 104z"/>
<path style="fill:#a4dbf2; stroke:none;" d="M475 104L476 105L475 104M310 105L311 106L310 105M337 105L338 106L337 105z"/>
<path style="fill:#76c9ec; stroke:none;" d="M342 105L343 106L342 105z"/>
<path style="fill:#a4dbf2; stroke:none;" d="M401.333 105.667L401.667 106.333L401.333 105.667M426 105L427 106L426 105M445 105L446 106L445 105z"/>
<path style="fill:#76c9ec; stroke:none;" d="M477 105L478 106L477 105M291 106L292 107L291 106z"/>
<path style="fill:#a4dbf2; stroke:none;" d="M311 106L312 107L311 106M336 106L337 107L336 106z"/>
<path style="fill:#76c9ec; stroke:none;" d="M343 106L344 107L343 106z"/>
<path style="fill:#57bde7; stroke:none;" d="M426 106L427 107L426 106z"/>
<path style="fill:#a4dbf2; stroke:none;" d="M471 106L472 107L471 106M478 106L479 107L478 106M312 107L313 108L312 107z"/>
<path style="fill:#57bde7; stroke:none;" d="M334 107L335 108L334 107M344 107L345 108L344 107M469 107L470 108L469 107z"/>
<path style="fill:#76c9ec; stroke:none;" d="M292 108L293 109L292 108z"/>
<path style="fill:#57bde7; stroke:none;" d="M313 108L314 109L313 108z"/>
<path style="fill:#a4dbf2; stroke:none;" d="M333 108L334 109L333 108M400 108L401 109L400 108z"/>
<path style="fill:#76c9ec; stroke:none;" d="M448 108L449 109L448 108M468 108L469 109L468 108M479 108L480 109L479 108z"/>
<path style="fill:#a4dbf2; stroke:none;" d="M314 109L315 110L314 109z"/>
<path style="fill:#76c9ec; stroke:none;" d="M331 109L332 110L331 109z"/>
<path style="fill:#57bde7; stroke:none;" d="M345 109L346 110L345 109M399 109L400 110L399 109z"/>
<path style="fill:#a4dbf2; stroke:none;" d="M427 109L428 110L427 109M449 109L450 110L449 109z"/>
<path style="fill:#76c9ec; stroke:none;" d="M466 109L467 110L466 109z"/>
<path style="fill:#57bde7; stroke:none;" d="M316 110L317 111L316 110z"/>
<path style="fill:#a4dbf2; stroke:none;" d="M330 110L331 111L330 110z"/>
<path style="fill:#76c9ec; stroke:none;" d="M398 110L399 111L398 110z"/>
<path style="fill:#a4dbf2; stroke:none;" d="M416 110L417 111L416 110M450 110L451 111L450 110z"/>
<path style="fill:#57bde7; stroke:none;" d="M451 110L452 111L451 110z"/>
<path style="fill:#76c9ec; stroke:none;" d="M464 110L465 111L464 110z"/>
<path style="fill:#a4dbf2; stroke:none;" d="M480 110L481 111L480 110M318 111L319 112L318 111z"/>
<path style="fill:#57bde7; stroke:none;" d="M319 111L320 112L319 111M327 111L328 112L327 111z"/>
<path style="fill:#a4dbf2; stroke:none;" d="M328 111L329 112L328 111z"/>
<path style="fill:#57bde7; stroke:none;" d="M346 111L347 112L346 111z"/>
<path style="fill:#76c9ec; stroke:none;" d="M397 111L398 112L397 111M416 111L417 112L416 111z"/>
<path style="fill:#a4dbf2; stroke:none;" d="M428 111L429 112L428 111M453 111L454 112L453 111z"/>
<path style="fill:#57bde7; stroke:none;" d="M454 111L455 112L454 111M462 111L463 112L462 111z"/>
<path style="fill:#a4dbf2; stroke:none;" d="M463 111L464 112L463 111z"/>
<path style="fill:#76c9ec; stroke:none;" d="M481 111L482 112L481 111M294 112L295 113L294 112z"/>
<path style="fill:#57bde7; stroke:none;" d="M348 112L349 113L348 112M429 112L430 113L429 112z"/>
<path style="fill:#76c9ec; stroke:none;" d="M483 112L484 113L483 112z"/>
<path style="fill:#57bde7; stroke:none;" d="M350 113L351 114L350 113M415 113L416 114L415 113M485 113L486 114L485 113z"/>
<path style="fill:#76c9ec; stroke:none;" d="M349 114L350 115L349 114z"/>
<path style="fill:#a4dbf2; stroke:none;" d="M484 114L485 115L484 114z"/>
<path style="fill:#76c9ec; stroke:none;" d="M296 115L297 116L296 115M348 115L349 116L348 115M414 115L415 116L414 115z"/>
<path style="fill:#57bde7; stroke:none;" d="M431 115L432 116L431 115z"/>
<path style="fill:#a4dbf2; stroke:none;" d="M483 115L484 116L483 115z"/>
<path style="fill:#76c9ec; stroke:none;" d="M297 116L298 117L297 116z"/>
<path style="fill:#a4dbf2; stroke:none;" d="M347 116L348 117L347 116M413 116L414 117L413 116z"/>
<path style="fill:#57bde7; stroke:none;" d="M432 116L433 117L432 116z"/>
<path style="fill:#a4dbf2; stroke:none;" d="M482 116L483 117L482 116M298 117L299 118L298 117z"/>
<path style="fill:#76c9ec; stroke:none;" d="M346 117L347 118L346 117z"/>
<path style="fill:#57bde7; stroke:none;" d="M433 117L434 118L433 117z"/>
<path style="fill:#a4dbf2; stroke:none;" d="M481 117L482 118L481 117z"/>
<path style="fill:#76c9ec; stroke:none;" d="M299 118L300 119L299 118z"/>
<path style="fill:#57bde7; stroke:none;" d="M434 118L435 119L434 118z"/>
<path style="fill:#a4dbf2; stroke:none;" d="M480 118L481 119L480 118z"/>
<path style="fill:#57bde7; stroke:none;" d="M300 119L301 120L300 119M345 119L346 120L345 119z"/>
<path style="fill:#76c9ec; stroke:none;" d="M412 119L413 120L412 119z"/>
<path style="fill:#a4dbf2; stroke:none;" d="M302 120L303 121L302 120M343 120L344 121L343 120z"/>
<path style="fill:#57bde7; stroke:none;" d="M411 120L412 121L411 120z"/>
<path style="fill:#a4dbf2; stroke:none;" d="M437 120L438 121L437 120M478 120L479 121L478 120z"/>
<path style="fill:#57bde7; stroke:none;" d="M303 121L304 122L303 121z"/>
<path style="fill:#76c9ec; stroke:none;" d="M342 121L343 122L342 121z"/>
<path style="fill:#a4dbf2; stroke:none;" d="M409 121L410 122L409 121z"/>
<path style="fill:#57bde7; stroke:none;" d="M438 121L439 122L438 121z"/>
<path style="fill:#76c9ec; stroke:none;" d="M477 121L478 122L477 121z"/>
<path style="fill:#a4dbf2; stroke:none;" d="M304 122L305 123L304 122M340 122L341 123L340 122z"/>
<path style="fill:#76c9ec; stroke:none;" d="M408 122L409 123L408 122M439 122L440 123L439 122z"/>
<path style="fill:#a4dbf2; stroke:none;" d="M475 122L476 123L475 122M442 123L443 124L442 123z"/>
<path style="fill:#57bde7; stroke:none;" d="M472 123L473 124L472 123z"/>
<path style="fill:#76c9ec; stroke:none;" d="M309 124L310 125L309 124z"/>
<path style="fill:#a4dbf2; stroke:none;" d="M336 124L337 125L336 124z"/>
<path style="fill:#57bde7; stroke:none;" d="M337 124L338 125L337 124z"/>
<path style="fill:#a4dbf2; stroke:none;" d="M402 124L403 125L402 124z"/>
<path style="fill:#57bde7; stroke:none;" d="M403 124L404 125L403 124z"/>
<path style="fill:#76c9ec; stroke:none;" d="M444 124L445 125L444 124z"/>
<path style="fill:#a4dbf2; stroke:none;" d="M471 124L472 125L471 124z"/>
<path style="fill:#57bde7; stroke:none;" d="M311 125L312 126L311 125z"/>
<path style="fill:#a4dbf2; stroke:none;" d="M312 125L313 126L312 125M333 125L334 126L333 125z"/>
<path style="fill:#57bde7; stroke:none;" d="M334 125L335 126L334 125z"/>
<path style="fill:#a4dbf2; stroke:none;" d="M397 125L398 126L397 125z"/>
<path style="fill:#76c9ec; stroke:none;" d="M398 125L399 126L398 125z"/>
<path style="fill:#57bde7; stroke:none;" d="M399 125L400 126L399 125z"/>
<path style="fill:#a4dbf2; stroke:none;" d="M447 125L448 126L447 125M468 125L469 126L468 125z"/>
<path style="fill:#57bde7; stroke:none;" d="M469 125L470 126L469 125M314 126L315 127L314 126z"/>
<path style="fill:#76c9ec; stroke:none;" d="M315 126L316 127L315 126M330 126L331 127L330 126z"/>
<path style="fill:#a4dbf2; stroke:none;" d="M450.667 126.333L451.333 126.667L450.667 126.333M464 126L465 127L464 126z"/>
<path style="fill:#57bde7; stroke:none;" d="M465 126L466 127L465 126M319 127L319 128L322 128L319 127z"/>
<path style="fill:#76c9ec; stroke:none;" d="M322 127L323 128L322 127z"/>
<path style="fill:#57bde7; stroke:none;" d="M323 127L323 128L327 128L323 127M454 127L454 128L457 128L454 127z"/>
<path style="fill:#76c9ec; stroke:none;" d="M457 127L458 128L457 127z"/>
<path style="fill:#57bde7; stroke:none;" d="M458 127L458 128L462 128L458 127M493.667 142.333L494.333 142.667L493.667 142.333z"/>
<path style="fill:#76c9ec; stroke:none;" d="M495.667 142.333L496.333 142.667L495.667 142.333z"/>
<path style="fill:#a4dbf2; stroke:none;" d="M497 142L497 143L501 143L497 142z"/>
<path style="fill:#57bde7; stroke:none;" d="M473.667 143.333L474.333 143.667L473.667 143.333z"/>
<path style="fill:#76c9ec; stroke:none;" d="M475.667 143.333L476.333 143.667L475.667 143.333z"/>
<path style="fill:#a4dbf2; stroke:none;" d="M477.667 143.333L478.333 143.667L477.667 143.333z"/>
<path style="fill:#57bde7; stroke:none;" d="M465 144L466 145L465 144z"/>
<path style="fill:#76c9ec; stroke:none;" d="M466.667 144.333L467.333 144.667L466.667 144.333z"/>
<path style="fill:#a4dbf2; stroke:none;" d="M468 144L468 145L471 145L468 144z"/>
<path style="fill:#57bde7; stroke:none;" d="M457 145L457 146L460 146L457 145z"/>
<path style="fill:#76c9ec; stroke:none;" d="M460 145L461 146L460 145z"/>
<path style="fill:#a4dbf2; stroke:none;" d="M461.667 145.333L462.333 145.667L461.667 145.333z"/>
<path style="fill:#57bde7; stroke:none;" d="M452 146L453 147L452 146z"/>
<path style="fill:#76c9ec; stroke:none;" d="M453 146L454 147L453 146z"/>
<path style="fill:#a4dbf2; stroke:none;" d="M454.667 146.333L455.333 146.667L454.667 146.333z"/>
<path style="fill:#57bde7; stroke:none;" d="M446 147L447 148L446 147z"/>
<path style="fill:#a4dbf2; stroke:none;" d="M447 147L447 148L450 148L447 147z"/>
<path style="fill:#57bde7; stroke:none;" d="M439.667 148.333L440.333 148.667L439.667 148.333z"/>
<path style="fill:#76c9ec; stroke:none;" d="M441 148L442 149L441 148z"/>
<path style="fill:#a4dbf2; stroke:none;" d="M442 148L443 149L442 148z"/>
<path style="fill:#76c9ec; stroke:none;" d="M435 149L436 150L435 149z"/>
<path style="fill:#a4dbf2; stroke:none;" d="M436.667 149.333L437.333 149.667L436.667 149.333z"/>
<path style="fill:#76c9ec; stroke:none;" d="M430 150L431 151L430 150z"/>
<path style="fill:#a4dbf2; stroke:none;" d="M431.667 150.333L432.333 150.667L431.667 150.333z"/>
<path style="fill:#57bde7; stroke:none;" d="M416 151L417 152L416 151z"/>
<path style="fill:#76c9ec; stroke:none;" d="M417 151L418 152L417 151z"/>
<path style="fill:#a4dbf2; stroke:none;" d="M418.667 151.333L419.333 151.667L418.667 151.333z"/>
<path style="fill:#57bde7; stroke:none;" d="M412 152L413 153L412 152z"/>
<path style="fill:#a4dbf2; stroke:none;" d="M413 152L414 153L413 152z"/>
<path style="fill:#57bde7; stroke:none;" d="M408 153L409 154L408 153z"/>
<path style="fill:#76c9ec; stroke:none;" d="M409 153L410 154L409 153z"/>
<path style="fill:#a4dbf2; stroke:none;" d="M410 153L411 154L410 153M405 154L406 155L405 154z"/>
<path style="fill:#57bde7; stroke:none;" d="M401 155L402 156L401 155z"/>
<path style="fill:#a4dbf2; stroke:none;" d="M402.667 155.333L403.333 155.667L402.667 155.333z"/>
<path style="fill:#57bde7; stroke:none;" d="M397 156L398 157L397 156z"/>
<path style="fill:#a4dbf2; stroke:none;" d="M398 156L399 157L398 156z"/>
<path style="fill:#57bde7; stroke:none;" d="M394 157L395 158L394 157z"/>
<path style="fill:#76c9ec; stroke:none;" d="M395 157L396 158L395 157z"/>
<path style="fill:#a4dbf2; stroke:none;" d="M396 157L397 158L396 157z"/>
<path style="fill:#76c9ec; stroke:none;" d="M391 158L392 159L391 158z"/>
<path style="fill:#a4dbf2; stroke:none;" d="M392 158L393 159L392 158z"/>
<path style="fill:#57bde7; stroke:none;" d="M384 159L385 160L384 159z"/>
<path style="fill:#76c9ec; stroke:none;" d="M385 159L386 160L385 159z"/>
<path style="fill:#a4dbf2; stroke:none;" d="M386 159L387 160L386 159z"/>
<path style="fill:#57bde7; stroke:none;" d="M382 160L383 161L382 160M376 161L377 162L376 161z"/>
<path style="fill:#a4dbf2; stroke:none;" d="M377 161L378 162L377 161z"/>
<path style="fill:#76c9ec; stroke:none;" d="M374 162L375 163L374 162M371 163L372 164L371 163z"/>
<path style="fill:#a4dbf2; stroke:none;" d="M372 163L373 164L372 163z"/>
<path style="fill:#57bde7; stroke:none;" d="M368 164L369 165L368 164z"/>
<path style="fill:#a4dbf2; stroke:none;" d="M369 164L370 165L369 164z"/>
<path style="fill:#57bde7; stroke:none;" d="M366 165L367 166L366 165z"/>
<path style="fill:#a4dbf2; stroke:none;" d="M367 165L368 166L367 165M505.667 165.333L506.333 165.667L505.667 165.333z"/>
<path style="fill:#76c9ec; stroke:none;" d="M507.667 165.333L508.333 165.667L507.667 165.333z"/>
<path style="fill:#57bde7; stroke:none;" d="M509 165L509 166L514 166L509 165M363 166L364 167L363 166z"/>
<path style="fill:#a4dbf2; stroke:none;" d="M364 166L365 167L364 166M497 166L498 167L497 166z"/>
<path style="fill:#76c9ec; stroke:none;" d="M498.667 166.333L499.333 166.667L498.667 166.333z"/>
<path style="fill:#57bde7; stroke:none;" d="M500.667 166.333L501.333 166.667L500.667 166.333z"/>
<path style="fill:#2aabe1; stroke:none;" d="M514 314L514 166C501.035 166 488.618 167.615 476 170.464C468.356 172.189 460.975 175.78 454.001 179.235C448.284 182.066 443.789 185.268 439.043 189.579C406.099 219.506 449.484 261.565 471.576 281.64C476.878 286.458 482.415 290.804 488 295.264C495.897 301.571 504.855 309.801 514 314z"/>
<path style="fill:#a4dbf2; stroke:none;" d="M487.667 167.333L488.333 167.667L487.667 167.333z"/>
<path style="fill:#76c9ec; stroke:none;" d="M357 168L358 169L357 168z"/>
<path style="fill:#a4dbf2; stroke:none;" d="M358 168L359 169L358 168M484 168L485 169L484 168z"/>
<path style="fill:#57bde7; stroke:none;" d="M485.667 168.333L486.333 168.667L485.667 168.333M354 169L355 170L354 169z"/>
<path style="fill:#a4dbf2; stroke:none;" d="M355 169L356 170L355 169z"/>
<path style="fill:#76c9ec; stroke:none;" d="M480 169L481 170L480 169z"/>
<path style="fill:#57bde7; stroke:none;" d="M481 169L482 170L481 169z"/>
<path style="fill:#76c9ec; stroke:none;" d="M351 170L352 171L351 170z"/>
<path style="fill:#a4dbf2; stroke:none;" d="M352 170L353 171L352 170M474 170L475 171L474 170z"/>
<path style="fill:#57bde7; stroke:none;" d="M475 170L476 171L475 170z"/>
<path style="fill:#a4dbf2; stroke:none;" d="M349 171L350 172L349 171z"/>
<path style="fill:#76c9ec; stroke:none;" d="M346 172L347 173L346 172z"/>
<path style="fill:#a4dbf2; stroke:none;" d="M469 172L470 173L469 172z"/>
<path style="fill:#57bde7; stroke:none;" d="M470 172L471 173L470 172z"/>
<path style="fill:#a4dbf2; stroke:none;" d="M345 173L346 174L345 173M466 173L467 174L466 173z"/>
<path style="fill:#76c9ec; stroke:none;" d="M467 173L468 174L467 173M341 174L342 175L341 174z"/>
<path style="fill:#a4dbf2; stroke:none;" d="M463 174L464 175L463 174z"/>
<path style="fill:#76c9ec; stroke:none;" d="M339 175L340 176L339 175z"/>
<path style="fill:#57bde7; stroke:none;" d="M461 175L462 176L461 175z"/>
<path style="fill:#a4dbf2; stroke:none;" d="M458 176L459 177L458 176z"/>
<path style="fill:#57bde7; stroke:none;" d="M459 176L460 177L459 176z"/>
<path style="fill:#a4dbf2; stroke:none;" d="M337 177L338 178L337 177z"/>
<path style="fill:#57bde7; stroke:none;" d="M334 178L335 179L334 178z"/>
<path style="fill:#a4dbf2; stroke:none;" d="M335 178L336 179L335 178z"/>
<path style="fill:#57bde7; stroke:none;" d="M332 179L333 180L332 179z"/>
<path style="fill:#a4dbf2; stroke:none;" d="M333 179L334 180L333 179M454 179L455 180L454 179M330 180L331 181L330 180M450 180L451 181L450 180z"/>
<path style="fill:#57bde7; stroke:none;" d="M328 181L329 182L328 181z"/>
<path style="fill:#a4dbf2; stroke:none;" d="M329 181L330 182L329 181M325 182L326 183L325 182z"/>
<path style="fill:#76c9ec; stroke:none;" d="M323 183L324 184L323 183z"/>
<path style="fill:#57bde7; stroke:none;" d="M446 183L447 184L446 183M322 184L323 185L322 184z"/>
<path style="fill:#a4dbf2; stroke:none;" d="M444 184L445 185L444 184M321 185L322 186L321 185z"/>
<path style="fill:#76c9ec; stroke:none;" d="M443 185L444 186L443 185z"/>
<path style="fill:#a4dbf2; stroke:none;" d="M320 186L321 187L320 186z"/>
<path style="fill:#57bde7; stroke:none;" d="M442 186L443 187L442 186M318 187L319 188L318 187z"/>
<path style="fill:#a4dbf2; stroke:none;" d="M441 187L442 188L441 187M317 188L318 189L317 188M440 188L441 189L440 188z"/>
<path style="fill:#76c9ec; stroke:none;" d="M439 189L440 190L439 189z"/>
<path style="fill:#57bde7; stroke:none;" d="M312 190L313 191L312 190z"/>
<path style="fill:#76c9ec; stroke:none;" d="M437 190L438 191L437 190z"/>
<path style="fill:#a4dbf2; stroke:none;" d="M311 191L312 192L311 191z"/>
<path style="fill:#76c9ec; stroke:none;" d="M436 191L437 192L436 191z"/>
<path style="fill:#57bde7; stroke:none;" d="M309 192L310 193L309 192z"/>
<path style="fill:#a4dbf2; stroke:none;" d="M435 192L436 193L435 192z"/>
<path style="fill:#76c9ec; stroke:none;" d="M308 193L309 194L308 193M306 195L307 196L306 195z"/>
<path style="fill:#a4dbf2; stroke:none;" d="M305 196L306 197L305 196z"/>
<path style="fill:#76c9ec; stroke:none;" d="M433 196L434 197L433 196z"/>
<path style="fill:#a4dbf2; stroke:none;" d="M432 197L433 198L432 197z"/>
<path style="fill:#76c9ec; stroke:none;" d="M302 198L303 199L302 198z"/>
<path style="fill:#a4dbf2; stroke:none;" d="M431 198L432 199L431 198z"/>
<path style="fill:#76c9ec; stroke:none;" d="M430 199L431 200L430 199z"/>
<path style="fill:#57bde7; stroke:none;" d="M299 200L300 201L299 200z"/>
<path style="fill:#76c9ec; stroke:none;" d="M298 201L299 202L298 201z"/>
<path style="fill:#a4dbf2; stroke:none;" d="M297 202L298 203L297 202M296 203L297 204L296 203M429 203L430 204L429 203z"/>
<path style="fill:#57bde7; stroke:none;" d="M429 204L430 205L429 204z"/>
<path style="fill:#a4dbf2; stroke:none;" d="M428 205L429 206L428 205z"/>
<path style="fill:#76c9ec; stroke:none;" d="M428 206L429 207L428 206z"/>
<path style="fill:#a4dbf2; stroke:none;" d="M427 208L428 209L427 208z"/>
<path style="fill:#76c9ec; stroke:none;" d="M427 209L428 210L427 209z"/>
<path style="fill:#57bde7; stroke:none;" d="M427 210L427 213L428 213L427 210z"/>
<path style="fill:#a4dbf2; stroke:none;" d="M286 213L287 214L286 213z"/>
<path style="fill:#76c9ec; stroke:none;" d="M285 215L286 216L285 215z"/>
<path style="fill:#57bde7; stroke:none;" d="M284 216L285 217L284 216z"/>
<path style="fill:#a4dbf2; stroke:none;" d="M282 218L283 219L282 218z"/>
<path style="fill:#57bde7; stroke:none;" d="M427 218L428 219L427 218z"/>
<path style="fill:#76c9ec; stroke:none;" d="M281 219L282 220L281 219M427.333 219.667L427.667 220.333L427.333 219.667z"/>
<path style="fill:#57bde7; stroke:none;" d="M280 220L281 221L280 220z"/>
<path style="fill:#a4dbf2; stroke:none;" d="M279 221L280 222L279 221z"/>
<path style="fill:#57bde7; stroke:none;" d="M428 223L429 224L428 223z"/>
<path style="fill:#76c9ec; stroke:none;" d="M428 224L429 225L428 224M278 225L279 226L278 225z"/>
<path style="fill:#a4dbf2; stroke:none;" d="M428 225L429 226L428 225M277 227L278 228L277 227z"/>
<path style="fill:#57bde7; stroke:none;" d="M429 227L430 228L429 227M274 229L275 230L274 229z"/>
<path style="fill:#a4dbf2; stroke:none;" d="M274 230L275 231L274 230z"/>
<path style="fill:#57bde7; stroke:none;" d="M273 231L274 232L273 231z"/>
<path style="fill:#76c9ec; stroke:none;" d="M430 231L431 232L430 231M272 233L273 234L272 233z"/>
<path style="fill:#57bde7; stroke:none;" d="M431 233L432 234L431 233z"/>
<path style="fill:#a4dbf2; stroke:none;" d="M431 234L432 235L431 234z"/>
<path style="fill:#76c9ec; stroke:none;" d="M271 235L272 236L271 235z"/>
<path style="fill:#57bde7; stroke:none;" d="M432 235L433 236L432 235M433 236L434 237L433 236M434 237L435 238L434 237M270 239L271 240L270 239z"/>
<path style="fill:#a4dbf2; stroke:none;" d="M270 240L271 241L270 240M435 241L436 242L435 241M269 242L270 243L269 242M268 244L269 245L268 244M438 245L439 246L438 245M267 246L268 247L267 246M439 247L440 248L439 247z"/>
<path style="fill:#76c9ec; stroke:none;" d="M266 248L267 249L266 248z"/>
<path style="fill:#a4dbf2; stroke:none;" d="M440 248L441 249L440 248M266 249L267 250L266 249z"/>
<path style="fill:#57bde7; stroke:none;" d="M441 249L442 250L441 249M265 251L266 252L265 251M443 252L444 253L443 252z"/>
<path style="fill:#76c9ec; stroke:none;" d="M264 254L265 255L264 254z"/>
<path style="fill:#a4dbf2; stroke:none;" d="M264 255L265 256L264 255M445 255L446 256L445 255z"/>
<path style="fill:#57bde7; stroke:none;" d="M447 257L448 258L447 257M263 261L264 262L263 261z"/>
<path style="fill:#a4dbf2; stroke:none;" d="M450 261L451 262L450 261z"/>
<path style="fill:#76c9ec; stroke:none;" d="M263 262L264 263L263 262z"/>
<path style="fill:#a4dbf2; stroke:none;" d="M451 262L452 263L451 262M263.333 263.667L263.667 264.333L263.333 263.667z"/>
<path style="fill:#76c9ec; stroke:none;" d="M452 263L453 264L452 263M453 264L454 265L453 264M454 265L455 266L454 265M456 267L457 268L456 267z"/>
<path style="fill:#57bde7; stroke:none;" d="M457 268L458 269L457 268z"/>
<path style="fill:#76c9ec; stroke:none;" d="M458 269L459 270L458 269M459 270L460 271L459 270M460 271L461 272L460 271M461 272L462 273L461 272z"/>
<path style="fill:#a4dbf2; stroke:none;" d="M462 273L463 274L462 273M463 274L464 275L463 274z"/>
<path style="fill:#57bde7; stroke:none;" d="M467 277L468 278L467 277M228.333 278.667L228.667 279.333L228.333 278.667M468 278L469 279L468 278M469 279L470 280L469 279z"/>
<path style="fill:#76c9ec; stroke:none;" d="M228 280L229 281L228 280M470 280L471 281L470 280z"/>
<path style="fill:#a4dbf2; stroke:none;" d="M228.333 281.667L228.667 282.333L228.333 281.667M471 281L472 282L471 281z"/>
<path style="fill:#57bde7; stroke:none;" d="M473 283L474 284L473 283z"/>
<path style="fill:#a4dbf2; stroke:none;" d="M475 284L476 285L475 284M476 285L477 286L476 285z"/>
<path style="fill:#57bde7; stroke:none;" d="M229 286L230 287L229 286z"/>
<path style="fill:#a4dbf2; stroke:none;" d="M229 287L230 288L229 287z"/>
<path style="fill:#76c9ec; stroke:none;" d="M479 288L480 289L479 288M230 289L231 290L230 289z"/>
<path style="fill:#a4dbf2; stroke:none;" d="M263.333 290.667L263.667 291.333L263.333 290.667M231 291L232 292L231 291z"/>
<path style="fill:#76c9ec; stroke:none;" d="M483 291L484 292L483 291z"/>
<path style="fill:#57bde7; stroke:none;" d="M232 292L233 293L232 292z"/>
<path style="fill:#76c9ec; stroke:none;" d="M263 292L264 293L263 292z"/>
<path style="fill:#a4dbf2; stroke:none;" d="M484 292L485 293L484 292M232 293L233 294L232 293z"/>
<path style="fill:#57bde7; stroke:none;" d="M263 293L264 294L263 293z"/>
<path style="fill:#a4dbf2; stroke:none;" d="M487 294L488 295L487 294M488 295L489 296L488 295z"/>
<path style="fill:#57bde7; stroke:none;" d="M489 296L490 297L489 296z"/>
<path style="fill:#76c9ec; stroke:none;" d="M490 297L491 298L490 297z"/>
<path style="fill:#a4dbf2; stroke:none;" d="M235 298L236 299L235 298M491 298L492 299L491 298M264 299L265 300L264 299z"/>
<path style="fill:#76c9ec; stroke:none;" d="M264 300L265 301L264 300z"/>
<path style="fill:#57bde7; stroke:none;" d="M264 301L265 302L264 301M496 301L497 302L496 301z"/>
<path style="fill:#a4dbf2; stroke:none;" d="M265 303L266 304L265 303z"/>
<path style="fill:#57bde7; stroke:none;" d="M265 304L266 305L265 304z"/>
<path style="fill:#a4dbf2; stroke:none;" d="M500 304L501 305L500 304z"/>
<path style="fill:#76c9ec; stroke:none;" d="M242 305L243 306L242 305M266 306L267 307L266 306z"/>
<path style="fill:#a4dbf2; stroke:none;" d="M503 306L504 307L503 306z"/>
<path style="fill:#76c9ec; stroke:none;" d="M505 307L506 308L505 307z"/>
<path style="fill:#57bde7; stroke:none;" d="M247 308L248 309L247 308z"/>
<path style="fill:#a4dbf2; stroke:none;" d="M267 308L268 309L267 308M248 309L249 310L248 309z"/>
<path style="fill:#76c9ec; stroke:none;" d="M267 309L268 310L267 309z"/>
<path style="fill:#57bde7; stroke:none;" d="M507 309L508 310L507 309z"/>
<path style="fill:#a4dbf2; stroke:none;" d="M249 310L250 311L249 310z"/>
<path style="fill:#57bde7; stroke:none;" d="M250 310L251 311L250 310z"/>
<path style="fill:#a4dbf2; stroke:none;" d="M508 310L509 311L508 310z"/>
<path style="fill:#76c9ec; stroke:none;" d="M252 311L253 312L252 311z"/>
<path style="fill:#a4dbf2; stroke:none;" d="M268 311L269 312L268 311z"/>
<path style="fill:#57bde7; stroke:none;" d="M509 311L510 312L509 311M254 312L255 313L254 312M268 312L269 313L268 312z"/>
<path style="fill:#a4dbf2; stroke:none;" d="M510 312L511 313L510 312z"/>
<path style="fill:#76c9ec; stroke:none;" d="M256 313L257 314L256 313z"/>
</svg>
