<?xml version="1.0" standalone="yes"?>
<svg xmlns="http://www.w3.org/2000/svg" width="1200" height="1195">
<path style="fill:#010101; stroke:none;" d="M0 0L0 1195L1200 1195L1200 0L0 0z"/>
<path style="fill:#018aff; stroke:none;" d="M194 58L195 59L194 58z"/>
<path style="fill:#01adef; stroke:none;" d="M217 1139C204.14 1091.89 189.21 1046.74 191.036 997C192.232 964.42 196.872 932.387 205.91 901C232.519 808.585 301.543 734.638 380 682.333C507.226 597.516 660.007 557.635 809 531.75C857.072 523.398 905.469 516.684 954 511.831C1015.95 505.637 1078.71 498 1141 498L1141 256C1141 198.903 1141.47 143.001 1096.87 100.261C1055.22 60.3486 1007.34 58 953 58L863 58L304 58C234.951 58 157.669 46.5702 104 100.001C95.4959 108.467 87.7299 117.728 81.4637 128C59.0017 164.822 60 203.486 60 245L60 374L60 808L60 944C60 969.55 57.2032 996.926 62.8881 1022C79.5787 1095.62 143.807 1139 217 1139z"/>
<path style="fill:#01ffff; stroke:none;" d="M1025 61L1026 62L1025 61z"/>
<path style="fill:#019fdf; stroke:none;" d="M167 63L168 64L167 63M1036 64L1037 65L1036 64M1039 65L1040 66L1039 65z"/>
<path style="fill:#01ffff; stroke:none;" d="M1045 67L1046 68L1045 67z"/>
<path style="fill:#018aff; stroke:none;" d="M152 68L153 69L152 68z"/>
<path style="fill:#01ffff; stroke:none;" d="M1050 69L1051 70L1050 69M145 71L146 72L145 71z"/>
<path style="fill:#019fdf; stroke:none;" d="M141 73L142 74L141 73z"/>
<path style="fill:#018aff; stroke:none;" d="M139 74L140 75L139 74M137 75L138 76L137 75z"/>
<path style="fill:#019fdf; stroke:none;" d="M1064 76L1065 77L1064 76z"/>
<path style="fill:#018aff; stroke:none;" d="M1066 77L1067 78L1066 77z"/>
<path style="fill:#019fdf; stroke:none;" d="M132 78L133 79L132 78z"/>
<path style="fill:#01ffff; stroke:none;" d="M130 79L131 80L130 79z"/>
<path style="fill:#018aff; stroke:none;" d="M1071 80L1072 81L1071 80M1077 84L1078 85L1077 84z"/>
<path style="fill:#01ffff; stroke:none;" d="M121 85L122 86L121 85M117 88L118 89L117 88z"/>
<path style="fill:#019fdf; stroke:none;" d="M116 89L117 90L116 89z"/>
<path style="fill:#018aff; stroke:none;" d="M1085 90L1086 91L1085 90z"/>
<path style="fill:#01ffff; stroke:none;" d="M112 92L113 93L112 92z"/>
<path style="fill:#019fdf; stroke:none;" d="M1093 97L1094 98L1093 97M1094 98L1095 99L1094 98M1099 103L1100 104L1099 103z"/>
<path style="fill:#018aff; stroke:none;" d="M1102 106L1103 107L1102 106M94 110L95 111L94 110M87 119L88 120L87 119z"/>
<path style="fill:#019fdf; stroke:none;" d="M85 122L86 123L85 122z"/>
<path style="fill:#018aff; stroke:none;" d="M1122 134L1123 135L1122 134z"/>
<path style="fill:#019fdf; stroke:none;" d="M77 135L78 136L77 135z"/>
<path style="fill:#018aff; stroke:none;" d="M1127 144L1128 145L1127 144z"/>
<path style="fill:#01ffff; stroke:none;" d="M72 145L73 146L72 145z"/>
<path style="fill:#019fdf; stroke:none;" d="M70 150L71 151L70 150z"/>
<path style="fill:#01ffff; stroke:none;" d="M1130 151L1131 152L1130 151z"/>
<path style="fill:#019fdf; stroke:none;" d="M67 158L68 159L67 158z"/>
<path style="fill:#018aff; stroke:none;" d="M1135 166L1136 167L1135 166z"/>
<path style="fill:#019fdf; stroke:none;" d="M64 168L65 169L64 168M1136 170L1137 171L1136 170z"/>
<path style="fill:#01ffff; stroke:none;" d="M61 182L62 183L61 182z"/>
<path style="fill:#010101; stroke:none;" d="M522 396L522 395L483 356L482 356C465.102 372.758 442.892 387.317 418 385.907C362.807 382.78 337.404 317.47 365.066 273C383.443 243.456 421.594 235.168 452 250.37C459.173 253.957 465.778 258.787 472 263.805C474.315 265.672 477.689 269.811 480.91 269.794C485.095 269.772 489.681 261.812 492.155 259C501.496 248.385 510.698 237.648 520 227C476.942 173.599 382.133 172.953 333 217.171C280.01 264.858 275.583 351.735 324.715 403.911C339.099 419.186 357.145 429.859 377 436.33C399.377 443.624 424.98 444.375 448 439.8C477.896 433.858 500.809 417.191 522 396M1031 396L1031 395L1004 368C1001.06 365.059 996.499 358.426 992 358.117C988.243 357.86 984.602 362.401 982 364.565C975.791 369.727 969.246 374.569 962 378.191C933.096 392.643 896.246 385.86 877.04 359C848.094 318.517 866.187 251.688 919 243.439C946.78 239.1 969.97 253.515 990 271C1001.21 262.935 1009.79 249.322 1018.95 239C1021.48 236.155 1027.8 231.074 1027.79 227C1027.78 221.369 1016.08 214.164 1012 211.156C994.164 197.997 973.919 190.235 952 187.282C901.078 180.423 847.46 199.056 819.425 244C774.587 315.882 809.772 417.566 894 438.525C946.634 451.622 993.752 433.248 1031 396z"/>
<path style="fill:#01ffff; stroke:none;" d="M1139 186L1140 187L1139 186z"/>
<path style="fill:#019fdf; stroke:none;" d="M444 187L445 188L444 187M907 187L908 188L907 187z"/>
<path style="fill:#018aff; stroke:none;" d="M392 188L393 189L392 188z"/>
<path style="fill:#019fdf; stroke:none;" d="M901 188L902 189L901 188z"/>
<path style="fill:#01ffff; stroke:none;" d="M959 188L960 189L959 188M964 189L965 190L964 189z"/>
<path style="fill:#010101; stroke:none;" d="M194 190L194 438L255 438L255 190L194 190z"/>
<path style="fill:#019fdf; stroke:none;" d="M459 190L460 191L459 190z"/>
<path style="fill:#010101; stroke:none;" d="M561 190L561 438L662 438C690.434 438 718.667 438.658 744 423.547C786.352 398.283 783.771 323.626 733 309L733 307C775.64 285.233 764.166 222.119 728 201.429C706.6 189.187 681.782 190 658 190L561 190z"/>
<path style="fill:#019fdf; stroke:none;" d="M689 190L690 191L689 190z"/>
<path style="fill:#01ffff; stroke:none;" d="M893 190L894 191L893 190z"/>
<path style="fill:#019fdf; stroke:none;" d="M886 192L887 193L886 192z"/>
<path style="fill:#01ffff; stroke:none;" d="M978 193L979 194L978 193z"/>
<path style="fill:#018aff; stroke:none;" d="M371 194L372 195L371 194M474 195L475 196L474 195M366 196L367 197L366 196z"/>
<path style="fill:#019fdf; stroke:none;" d="M986 196L987 197L986 196z"/>
<path style="fill:#018aff; stroke:none;" d="M719 197L720 198L719 197z"/>
<path style="fill:#019fdf; stroke:none;" d="M873 197L874 198L873 197M1140 197L1141 198L1140 197M481 198L482 199L481 198z"/>
<path style="fill:#018aff; stroke:none;" d="M865 201L866 202L865 201z"/>
<path style="fill:#01ffff; stroke:none;" d="M729 202L730 203L729 202z"/>
<path style="fill:#019fdf; stroke:none;" d="M863 202L864 203L863 202z"/>
<path style="fill:#01ffff; stroke:none;" d="M352 203L353 204L352 203z"/>
<path style="fill:#019fdf; stroke:none;" d="M858 205L859 206L858 205M1003 205L1004 206L1003 205z"/>
<path style="fill:#01ffff; stroke:none;" d="M495 206L496 207L495 206M735 206L736 207L735 206M855 207L856 208L855 207z"/>
<path style="fill:#019fdf; stroke:none;" d="M341 210L342 211L341 210M501 210L502 211L501 210z"/>
<path style="fill:#01ffff; stroke:none;" d="M742 212L743 213L742 212z"/>
<path style="fill:#018aff; stroke:none;" d="M848 212L849 213L848 212z"/>
<path style="fill:#019fdf; stroke:none;" d="M1013 212L1014 213L1013 212z"/>
<path style="fill:#018aff; stroke:none;" d="M336 214L337 215L336 214z"/>
<path style="fill:#01ffff; stroke:none;" d="M1020 218L1021 219L1020 218z"/>
<path style="fill:#019fdf; stroke:none;" d="M512 219L513 220L512 219M749 220L750 221L749 220M328 221L329 222L328 221M327 222L328 223L327 222z"/>
<path style="fill:#01ffff; stroke:none;" d="M516 223L517 224L516 223M830 229L831 230L830 229M755 231L756 232L755 231z"/>
<path style="fill:#018aff; stroke:none;" d="M1022 234L1023 235L1022 234z"/>
<path style="fill:#019fdf; stroke:none;" d="M511 236L512 237L511 236M314 237L315 238L314 237z"/>
<path style="fill:#018aff; stroke:none;" d="M510 237L511 238L510 237z"/>
<path style="fill:#019fdf; stroke:none;" d="M822 239L823 240L822 239M312 240L313 241L312 240z"/>
<path style="fill:#01adef; stroke:none;" d="M618 241L618 290C639.246 290 669.242 295.393 689 286.756C702.22 280.977 708.683 261.502 697.786 250.185C689.924 242.02 677.648 241.001 667 241L618 241z"/>
<path style="fill:#01ffff; stroke:none;" d="M1015 242L1016 243L1015 242M403 244L404 245L403 244z"/>
<path style="fill:#019fdf; stroke:none;" d="M504 244L505 245L504 244z"/>
<path style="fill:#01ffff; stroke:none;" d="M689 244L690 245L689 244M945 244L946 245L945 244z"/>
<path style="fill:#019fdf; stroke:none;" d="M439 245L440 246L439 245z"/>
<path style="fill:#018aff; stroke:none;" d="M691 245L692 246L691 245z"/>
<path style="fill:#019fdf; stroke:none;" d="M759 245L760 246L759 245M308 246L309 247L308 246z"/>
<path style="fill:#01ffff; stroke:none;" d="M952 246L953 247L952 246z"/>
<path style="fill:#019fdf; stroke:none;" d="M694 247L695 248L694 247z"/>
<path style="fill:#01ffff; stroke:none;" d="M817 247L818 248L817 247z"/>
<path style="fill:#018aff; stroke:none;" d="M901 248L902 249L901 248z"/>
<path style="fill:#019fdf; stroke:none;" d="M1010 248L1011 249L1010 248z"/>
<path style="fill:#018aff; stroke:none;" d="M450 249L451 250L450 249z"/>
<path style="fill:#019fdf; stroke:none;" d="M899 249L900 250L899 249M452 250L453 251L452 250z"/>
<path style="fill:#01ffff; stroke:none;" d="M897 250L898 251L897 250z"/>
<path style="fill:#018aff; stroke:none;" d="M454 251L455 252L454 251z"/>
<path style="fill:#019fdf; stroke:none;" d="M498 251L499 252L498 251M965 252L966 253L965 252z"/>
<path style="fill:#01ffff; stroke:none;" d="M967 253L968 254L967 253z"/>
<path style="fill:#018aff; stroke:none;" d="M380 255L381 256L380 255z"/>
<path style="fill:#019fdf; stroke:none;" d="M887 257L888 258L887 257M973 257L974 258L973 257z"/>
<path style="fill:#01ffff; stroke:none;" d="M1002 257L1003 258L1002 257z"/>
<path style="fill:#019fdf; stroke:none;" d="M465 258L466 259L465 258z"/>
<path style="fill:#01ffff; stroke:none;" d="M702 259L703 260L702 259z"/>
<path style="fill:#018aff; stroke:none;" d="M976 259L977 260L976 259z"/>
<path style="fill:#01ffff; stroke:none;" d="M490 260L491 261L490 260z"/>
<path style="fill:#019fdf; stroke:none;" d="M300 262L301 263L300 262z"/>
<path style="fill:#018aff; stroke:none;" d="M879 265L880 266L879 265z"/>
<path style="fill:#01ffff; stroke:none;" d="M368 267L369 268L368 267z"/>
<path style="fill:#019fdf; stroke:none;" d="M759 267L760 268L759 267z"/>
<path style="fill:#01ffff; stroke:none;" d="M987 268L988 269L987 268z"/>
<path style="fill:#018aff; stroke:none;" d="M297 270L298 271L297 270z"/>
<path style="fill:#019fdf; stroke:none;" d="M702 270L703 271L702 270z"/>
<path style="fill:#01ffff; stroke:none;" d="M701 274L702 275L701 274z"/>
<path style="fill:#019fdf; stroke:none;" d="M295 276L296 277L295 276z"/>
<path style="fill:#018aff; stroke:none;" d="M294 280L295 281L294 280z"/>
<path style="fill:#019fdf; stroke:none;" d="M755 281L756 282L755 281M694 283L695 284L694 283z"/>
<path style="fill:#018aff; stroke:none;" d="M754 283L755 284L754 283M753 285L754 286L753 285z"/>
<path style="fill:#01ffff; stroke:none;" d="M689 286L690 287L689 286z"/>
<path style="fill:#018aff; stroke:none;" d="M802 286L803 287L802 286z"/>
<path style="fill:#019fdf; stroke:none;" d="M292 289L293 290L292 289M355 296L356 297L355 296M864 298L865 299L864 298z"/>
<path style="fill:#01ffff; stroke:none;" d="M739 302L740 303L739 302z"/>
<path style="fill:#019fdf; stroke:none;" d="M863 305L864 306L863 305M734 306L735 307L734 306z"/>
<path style="fill:#01ffff; stroke:none;" d="M354 326L355 327L354 326z"/>
<path style="fill:#018aff; stroke:none;" d="M761 329L762 330L761 329z"/>
<path style="fill:#019fdf; stroke:none;" d="M764 333L765 334L764 333z"/>
<path style="fill:#01adef; stroke:none;" d="M618 336L618 387L680 387C691.021 387 703.809 385.99 711.443 376.826C721.837 364.349 715.401 344.852 701 339.373C677.016 330.25 643.361 336 618 336z"/>
<path style="fill:#019fdf; stroke:none;" d="M688 336L689 337L688 336z"/>
<path style="fill:#018aff; stroke:none;" d="M698 338L699 339L698 338M357 339L358 340L357 339z"/>
<path style="fill:#01ffff; stroke:none;" d="M802 342L803 343L802 342z"/>
<path style="fill:#018aff; stroke:none;" d="M711 346L712 347L711 346z"/>
<path style="fill:#01ffff; stroke:none;" d="M770 346L771 347L770 346z"/>
<path style="fill:#019fdf; stroke:none;" d="M803 347L804 348L803 347M713 349L714 350L713 349M771 349L772 350L771 349z"/>
<path style="fill:#01ffff; stroke:none;" d="M872 352L873 353L872 352M772 354L773 355L772 354z"/>
<path style="fill:#019fdf; stroke:none;" d="M805 354L806 355L805 354z"/>
<path style="fill:#01ffff; stroke:none;" d="M296 355L297 356L296 355z"/>
<path style="fill:#018aff; stroke:none;" d="M806 357L807 358L806 357z"/>
<path style="fill:#019fdf; stroke:none;" d="M993 357L994 358L993 357z"/>
<path style="fill:#018aff; stroke:none;" d="M989 358L990 359L989 358z"/>
<path style="fill:#019fdf; stroke:none;" d="M994 358L995 359L994 358M807 360L808 361L807 360M476 361L477 362L476 361z"/>
<path style="fill:#01ffff; stroke:none;" d="M878 361L879 362L878 361M773 362L774 363L773 362z"/>
<path style="fill:#019fdf; stroke:none;" d="M998 362L999 363L998 362M999 363L1000 364L999 363z"/>
<path style="fill:#01ffff; stroke:none;" d="M372 365L373 366L372 365z"/>
<path style="fill:#018aff; stroke:none;" d="M300 366L301 367L300 366z"/>
<path style="fill:#01ffff; stroke:none;" d="M373 366L374 367L373 366z"/>
<path style="fill:#019fdf; stroke:none;" d="M1002 366L1003 367L1002 366z"/>
<path style="fill:#01ffff; stroke:none;" d="M469 367L470 368L469 367z"/>
<path style="fill:#019fdf; stroke:none;" d="M1003 367L1004 368L1003 367z"/>
<path style="fill:#01ffff; stroke:none;" d="M375 368L376 369L375 368z"/>
<path style="fill:#019fdf; stroke:none;" d="M811 370L812 371L811 370M714 371L715 372L714 371M812 372L813 373L812 372z"/>
<path style="fill:#018aff; stroke:none;" d="M381 373L382 374L381 373z"/>
<path style="fill:#019fdf; stroke:none;" d="M773 374L774 375L773 374M813 374L814 375L813 374M384 375L385 376L384 375z"/>
<path style="fill:#01ffff; stroke:none;" d="M454 377L455 378L454 377z"/>
<path style="fill:#018aff; stroke:none;" d="M452 378L453 379L452 378M391 379L392 380L391 379z"/>
<path style="fill:#019fdf; stroke:none;" d="M708 379L709 380L708 379z"/>
<path style="fill:#01ffff; stroke:none;" d="M707 380L708 381L707 380z"/>
<path style="fill:#018aff; stroke:none;" d="M905 381L906 382L905 381z"/>
<path style="fill:#019fdf; stroke:none;" d="M954 381L955 382L954 381M772 382L773 383L772 382M402 383L403 384L402 383M818 383L819 384L818 383M433 384L434 385L433 384M916 384L917 385L916 384z"/>
<path style="fill:#01ffff; stroke:none;" d="M310 385L311 386L310 385z"/>
<path style="fill:#018aff; stroke:none;" d="M414 385L415 386L414 385M934 385L935 386L934 385z"/>
<path style="fill:#01ffff; stroke:none;" d="M820 386L821 387L820 386M312 388L313 389L312 388z"/>
<path style="fill:#019fdf; stroke:none;" d="M822 389L823 390L822 389z"/>
<path style="fill:#01ffff; stroke:none;" d="M825 393L826 394L825 393M768 395L769 396L768 395M829 398L830 399L829 398z"/>
<path style="fill:#019fdf; stroke:none;" d="M1024 402L1025 403L1024 402z"/>
<path style="fill:#01ffff; stroke:none;" d="M325 404L326 405L325 404M328 407L329 408L328 407z"/>
<path style="fill:#019fdf; stroke:none;" d="M330 409L331 410L330 409z"/>
<path style="fill:#01ffff; stroke:none;" d="M507 409L508 410L507 409z"/>
<path style="fill:#019fdf; stroke:none;" d="M331 410L332 411L331 410z"/>
<path style="fill:#018aff; stroke:none;" d="M756 413L757 414L756 413M755 414L756 415L755 414z"/>
<path style="fill:#019fdf; stroke:none;" d="M753 416L754 417L753 416z"/>
<path style="fill:#01ffff; stroke:none;" d="M1008 416L1009 417L1008 416z"/>
<path style="fill:#018aff; stroke:none;" d="M496 418L497 419L496 418z"/>
<path style="fill:#01ffff; stroke:none;" d="M852 419L853 420L852 419M344 420L345 421L344 420z"/>
<path style="fill:#018aff; stroke:none;" d="M347 422L348 423L347 422z"/>
<path style="fill:#01ffff; stroke:none;" d="M998 423L999 424L998 423z"/>
<path style="fill:#018aff; stroke:none;" d="M487 424L488 425L487 424z"/>
<path style="fill:#019fdf; stroke:none;" d="M742 424L743 425L742 424z"/>
<path style="fill:#01ffff; stroke:none;" d="M352 425L353 426L352 425M738 426L739 427L738 426z"/>
<path style="fill:#018aff; stroke:none;" d="M993 426L994 427L993 426z"/>
<path style="fill:#01ffff; stroke:none;" d="M736 427L737 428L736 427M865 427L866 428L865 427z"/>
<path style="fill:#018aff; stroke:none;" d="M478 429L479 430L478 429z"/>
<path style="fill:#01ffff; stroke:none;" d="M869 429L870 430L869 429z"/>
<path style="fill:#019fdf; stroke:none;" d="M476 430L477 431L476 430z"/>
<path style="fill:#018aff; stroke:none;" d="M871 430L872 431L871 430z"/>
<path style="fill:#019fdf; stroke:none;" d="M474 431L475 432L474 431M873 431L874 432L873 431M366 432L367 433L366 432M720 433L721 434L720 433M371 434L372 435L371 434M374 435L375 436L374 435z"/>
<path style="fill:#018aff; stroke:none;" d="M457 437L458 438L457 437M890 437L891 438L890 437z"/>
<path style="fill:#01ffff; stroke:none;" d="M958 439L959 440L958 439z"/>
<path style="fill:#019fdf; stroke:none;" d="M953 440L954 441L953 440M1087 500L1088 501L1087 500z"/>
<path style="fill:#018aff; stroke:none;" d="M1072 501L1073 502L1072 501z"/>
<path style="fill:#019fdf; stroke:none;" d="M1006 506L1007 507L1006 506z"/>
<path style="fill:#01ffff; stroke:none;" d="M974 509L975 510L974 509z"/>
<path style="fill:#018aff; stroke:none;" d="M928 514L929 515L928 514z"/>
<path style="fill:#019fdf; stroke:none;" d="M895 518L896 519L895 518M846 525L847 526L846 525z"/>
<path style="fill:#01ffff; stroke:none;" d="M821 529L822 530L821 529z"/>
<path style="fill:#018aff; stroke:none;" d="M815 530L816 531L815 530M781 536L782 537L781 536z"/>
<path style="fill:#01ffff; stroke:none;" d="M765 539L766 540L765 539M760 540L761 541L760 540z"/>
<path style="fill:#018aff; stroke:none;" d="M755 541L756 542L755 541z"/>
<path style="fill:#01ffff; stroke:none;" d="M722 548L723 549L722 548M713 550L714 551L713 550z"/>
<path style="fill:#018aff; stroke:none;" d="M704 552L705 553L704 552z"/>
<path style="fill:#019fdf; stroke:none;" d="M679 558L680 559L679 558M675 559L676 560L675 559z"/>
<path style="fill:#01ffff; stroke:none;" d="M660 563L661 564L660 563M631 571L632 572L631 571M624 573L625 574L624 573M601 580L602 581L601 580z"/>
<path style="fill:#019fdf; stroke:none;" d="M591 583L592 584L591 583M588 584L589 585L588 584z"/>
<path style="fill:#01adef; stroke:none;" d="M1141 1139L1141 584C1094.74 584 1047.62 590.045 1003 602.71C965.553 613.338 930.093 626.29 896 645.309C879.134 654.718 863.459 667.217 850.015 681C841.138 690.101 833.096 700.692 827.258 712C783.423 796.919 850.15 889.172 906.964 948.999C918.392 961.033 929.537 973.294 942 984.286C958.087 998.473 973.52 1013.31 990 1027.08C1011.17 1044.77 1032.67 1062.23 1055 1078.43C1082.64 1098.47 1110.32 1123.8 1141 1139z"/>
<path style="fill:#019fdf; stroke:none;" d="M585 585L586 586L585 585M1100 585L1101 586L1100 585M1090 586L1091 587L1090 586M1074 588L1075 589L1074 588M559 594L560 595L559 594M1020 598L1021 599L1020 598M545 599L546 600L545 599z"/>
<path style="fill:#01ffff; stroke:none;" d="M540 601L541 602L540 601z"/>
<path style="fill:#019fdf; stroke:none;" d="M1000 603L1001 604L1000 603z"/>
<path style="fill:#01ffff; stroke:none;" d="M512 612L513 613L512 612z"/>
<path style="fill:#019fdf; stroke:none;" d="M970 612L971 613L970 612M507 614L508 615L507 614z"/>
<path style="fill:#018aff; stroke:none;" d="M961 615L962 616L961 615z"/>
<path style="fill:#019fdf; stroke:none;" d="M493 620L494 621L493 620z"/>
<path style="fill:#01ffff; stroke:none;" d="M945 621L946 622L945 621z"/>
<path style="fill:#019fdf; stroke:none;" d="M943 622L944 623L943 622z"/>
<path style="fill:#018aff; stroke:none;" d="M933 626L934 627L933 626z"/>
<path style="fill:#019fdf; stroke:none;" d="M920 632L921 633L920 632M918 633L919 634L918 633z"/>
<path style="fill:#01ffff; stroke:none;" d="M463 634L464 635L463 634z"/>
<path style="fill:#019fdf; stroke:none;" d="M912 636L913 637L912 636z"/>
<path style="fill:#018aff; stroke:none;" d="M910 637L911 638L910 637z"/>
<path style="fill:#019fdf; stroke:none;" d="M901 642L902 643L901 642z"/>
<path style="fill:#01ffff; stroke:none;" d="M443 644L444 645L443 644M430 651L431 652L430 651M886 651L887 652L886 651z"/>
<path style="fill:#019fdf; stroke:none;" d="M426 653L427 654L426 653z"/>
<path style="fill:#018aff; stroke:none;" d="M883 653L884 654L883 653z"/>
<path style="fill:#019fdf; stroke:none;" d="M876 658L877 659L876 658z"/>
<path style="fill:#01ffff; stroke:none;" d="M414 660L415 661L414 660M868 664L869 665L868 664z"/>
<path style="fill:#019fdf; stroke:none;" d="M844 687L845 688L844 687z"/>
<path style="fill:#01ffff; stroke:none;" d="M367 690L368 691L367 690z"/>
<path style="fill:#019fdf; stroke:none;" d="M840 692L841 693L840 692z"/>
<path style="fill:#01ffff; stroke:none;" d="M839 693L840 694L839 693z"/>
<path style="fill:#018aff; stroke:none;" d="M360 695L361 696L360 695z"/>
<path style="fill:#01ffff; stroke:none;" d="M836 697L837 698L836 697M348 704L349 705L348 704z"/>
<path style="fill:#018aff; stroke:none;" d="M339 711L340 712L339 711z"/>
<path style="fill:#019fdf; stroke:none;" d="M328 720L329 721L328 720z"/>
<path style="fill:#01ffff; stroke:none;" d="M327 721L328 722L327 721z"/>
<path style="fill:#019fdf; stroke:none;" d="M320 727L321 728L320 727z"/>
<path style="fill:#018aff; stroke:none;" d="M319 728L320 729L319 728z"/>
<path style="fill:#019fdf; stroke:none;" d="M817 736L818 737L817 736M309 737L310 738L309 737M816 740L817 741L816 740z"/>
<path style="fill:#01ffff; stroke:none;" d="M305 741L306 742L305 741M815 744L816 745L815 744M296 750L297 751L296 750z"/>
<path style="fill:#018aff; stroke:none;" d="M295 751L296 752L295 751z"/>
<path style="fill:#019fdf; stroke:none;" d="M292 754L293 755L292 754M281 766L282 767L281 766z"/>
<path style="fill:#01ffff; stroke:none;" d="M276 772L277 773L276 772z"/>
<path style="fill:#019fdf; stroke:none;" d="M260 792L261 793L260 792z"/>
<path style="fill:#01ffff; stroke:none;" d="M258 795L259 796L258 795M251 805L252 806L251 805M249 808L250 809L249 808z"/>
<path style="fill:#019fdf; stroke:none;" d="M818 808L819 809L818 808z"/>
<path style="fill:#01ffff; stroke:none;" d="M247 811L248 812L247 811z"/>
<path style="fill:#018aff; stroke:none;" d="M819 812L820 813L819 812z"/>
<path style="fill:#019fdf; stroke:none;" d="M245 814L246 815L245 814M820 815L821 816L820 815M240 822L241 823L240 822z"/>
<path style="fill:#01ffff; stroke:none;" d="M823 824L824 825L823 824M830 841L831 842L830 841M229 842L230 843L229 842z"/>
<path style="fill:#019fdf; stroke:none;" d="M832 845L833 846L832 845z"/>
<path style="fill:#01ffff; stroke:none;" d="M227 846L228 847L227 846M226 848L227 849L226 848z"/>
<path style="fill:#018aff; stroke:none;" d="M225 850L226 851L225 850z"/>
<path style="fill:#01ffff; stroke:none;" d="M837 855L838 856L837 855z"/>
<path style="fill:#019fdf; stroke:none;" d="M219 863L220 864L219 863z"/>
<path style="fill:#01ffff; stroke:none;" d="M842 864L843 865L842 864z"/>
<path style="fill:#019fdf; stroke:none;" d="M216 870L217 871L216 870z"/>
<path style="fill:#01ffff; stroke:none;" d="M213 878L214 879L213 878z"/>
<path style="fill:#019fdf; stroke:none;" d="M852 880L853 881L852 880M211 883L212 884L211 883z"/>
<path style="fill:#01ffff; stroke:none;" d="M860 892L861 893L860 892z"/>
<path style="fill:#019fdf; stroke:none;" d="M206 898L207 899L206 898M866 900L867 901L866 900M869 904L870 905L869 904z"/>
<path style="fill:#018aff; stroke:none;" d="M872 908L873 909L872 908z"/>
<path style="fill:#01ffff; stroke:none;" d="M875 912L876 913L875 912M884 923L885 924L884 923z"/>
<path style="fill:#018aff; stroke:none;" d="M199 925L200 926L199 925z"/>
<path style="fill:#01ffff; stroke:none;" d="M890 930L891 931L890 930z"/>
<path style="fill:#019fdf; stroke:none;" d="M891 931L892 932L891 931z"/>
<path style="fill:#018aff; stroke:none;" d="M898 939L899 940L898 939z"/>
<path style="fill:#019fdf; stroke:none;" d="M900 941L901 942L900 941z"/>
<path style="fill:#01ffff; stroke:none;" d="M909 951L910 952L909 951z"/>
<path style="fill:#018aff; stroke:none;" d="M910 952L911 953L910 952z"/>
<path style="fill:#019fdf; stroke:none;" d="M914 956L915 957L914 956z"/>
<path style="fill:#018aff; stroke:none;" d="M941 983L942 984L941 983z"/>
<path style="fill:#01ffff; stroke:none;" d="M942 984L943 985L942 984z"/>
<path style="fill:#019fdf; stroke:none;" d="M191.333 989.667L191.667 990.333L191.333 989.667M953 994L954 995L953 994z"/>
<path style="fill:#01ffff; stroke:none;" d="M965 1005L966 1006L965 1005M191 1011L192 1012L191 1011z"/>
<path style="fill:#019fdf; stroke:none;" d="M61 1013L62 1014L61 1013z"/>
<path style="fill:#01ffff; stroke:none;" d="M981 1019L982 1020L981 1019M64 1028L65 1029L64 1028z"/>
<path style="fill:#019fdf; stroke:none;" d="M192 1030L193 1031L192 1030M1004 1038L1005 1039L1004 1038z"/>
<path style="fill:#01ffff; stroke:none;" d="M1005 1039L1006 1040L1005 1039M1030 1059L1031 1060L1030 1059z"/>
<path style="fill:#019fdf; stroke:none;" d="M1038 1065L1039 1066L1038 1065z"/>
<path style="fill:#018aff; stroke:none;" d="M80 1066L81 1067L80 1066z"/>
<path style="fill:#01ffff; stroke:none;" d="M1039 1066L1040 1067L1039 1066z"/>
<path style="fill:#019fdf; stroke:none;" d="M197 1069L198 1070L197 1069z"/>
<path style="fill:#01ffff; stroke:none;" d="M1043 1069L1044 1070L1043 1069z"/>
<path style="fill:#019fdf; stroke:none;" d="M198 1074L199 1075L198 1074M86 1075L87 1076L86 1075z"/>
<path style="fill:#018aff; stroke:none;" d="M88 1078L89 1079L88 1078z"/>
<path style="fill:#019fdf; stroke:none;" d="M1055 1078L1056 1079L1055 1078M1059 1081L1060 1082L1059 1081z"/>
<path style="fill:#01ffff; stroke:none;" d="M1071 1090L1072 1091L1071 1090z"/>
<path style="fill:#019fdf; stroke:none;" d="M99 1091L100 1092L99 1091z"/>
<path style="fill:#01ffff; stroke:none;" d="M202 1092L203 1093L202 1092z"/>
<path style="fill:#019fdf; stroke:none;" d="M1078 1095L1079 1096L1078 1095z"/>
<path style="fill:#018aff; stroke:none;" d="M203 1096L204 1097L203 1096z"/>
<path style="fill:#01ffff; stroke:none;" d="M1082 1098L1083 1099L1082 1098M109 1101L110 1102L109 1101M115 1106L116 1107L115 1106M206 1107L207 1108L206 1107z"/>
<path style="fill:#019fdf; stroke:none;" d="M1096 1108L1097 1109L1096 1108z"/>
<path style="fill:#01ffff; stroke:none;" d="M123 1112L124 1113L123 1112M1103 1113L1104 1114L1103 1113M126 1114L127 1115L126 1114z"/>
<path style="fill:#019fdf; stroke:none;" d="M1106 1115L1107 1116L1106 1115M131 1117L132 1118L131 1117M209 1117L210 1118L209 1117M140 1122L141 1123L140 1122M1116 1122L1117 1123L1116 1122z"/>
<path style="fill:#018aff; stroke:none;" d="M146 1125L147 1126L146 1125z"/>
<path style="fill:#01ffff; stroke:none;" d="M153 1128L154 1129L153 1128M1126 1129L1127 1130L1126 1129z"/>
<path style="fill:#019fdf; stroke:none;" d="M165 1132L166 1133L165 1132z"/>
<path style="fill:#01ffff; stroke:none;" d="M168 1133L169 1134L168 1133z"/>
<path style="fill:#019fdf; stroke:none;" d="M215 1134L216 1135L215 1134M1135 1135L1136 1136L1135 1135z"/>
</svg>
