<?xml version="1.0" standalone="no"?>
<!DOCTYPE svg PUBLIC "-//W3C//DTD SVG 20010904//EN"
 "http://www.w3.org/TR/2001/REC-SVG-20010904/DTD/svg10.dtd">
<svg version="1.0" xmlns="http://www.w3.org/2000/svg"
 width="2560.000000pt" height="1280.000000pt" viewBox="0 0 2560.000000 1280.000000"
 preserveAspectRatio="xMidYMid meet">
<metadata>
Created by potrace 1.16, written by Peter Selinger 2001-2019
</metadata>
<g transform="translate(0.000000,1280.000000) scale(0.100000,-0.100000)"
fill="#000000" stroke="none">
<path d="M0 6400 l0 -6400 12800 0 12800 0 0 6400 0 6400 -12800 0 -12800 0 0
-6400z m13301 105 c293 -28 560 -84 819 -171 91 -31 168 -59 173 -63 4 -4 -17
-59 -47 -122 -59 -122 -139 -353 -176 -509 -13 -52 -24 -97 -26 -99 -2 -2 -52
28 -111 66 -306 199 -548 296 -893 359 -126 23 -357 24 -458 1 -363 -83 -585
-338 -609 -702 -15 -231 64 -432 236 -606 146 -145 257 -211 966 -567 582
-293 764 -404 935 -572 142 -139 223 -268 285 -453 52 -158 69 -267 69 -462 0
-136 -4 -192 -22 -282 -62 -309 -221 -614 -445 -850 -269 -283 -655 -465
-1122 -529 -179 -24 -568 -25 -750 -1 -364 49 -578 94 -760 162 -88 33 -339
146 -351 157 -2 3 16 50 40 104 85 192 134 356 175 583 12 63 23 116 25 119 3
2 62 -42 133 -99 274 -220 518 -348 806 -424 202 -53 504 -73 687 -45 513 78
840 393 875 846 16 205 -46 388 -187 551 -158 183 -408 335 -978 592 -251 114
-483 231 -594 298 -506 311 -716 663 -716 1198 0 409 140 770 412 1061 207
221 470 362 799 428 227 46 532 58 810 31z m5095 -42 c-3 -10 -13 -79 -22
-153 -13 -107 -15 -176 -10 -330 4 -107 9 -219 13 -249 6 -53 6 -54 -19 -48
-28 7 -447 51 -648 68 -74 6 -419 13 -766 16 l-631 5 -6 -77 c-4 -43 -7 -408
-7 -812 l0 -733 553 0 c627 0 865 10 1144 45 108 14 203 25 212 25 16 0 16 -9
-1 -132 -20 -152 -23 -379 -7 -547 6 -62 8 -115 6 -117 -3 -3 -79 4 -170 15
-402 50 -459 53 -1114 58 l-633 5 0 -729 c0 -783 9 -1138 39 -1524 10 -134 18
-245 17 -246 -1 -1 -38 2 -82 8 -130 16 -575 23 -718 10 -71 -6 -131 -10 -132
-8 -2 2 13 185 33 408 l36 404 4 1655 c5 1721 3 1853 -41 2735 -7 132 -11 241
-10 243 1 2 285 -2 630 -8 809 -15 2047 -8 2189 13 143 20 147 20 141 0z
m1504 -9 c185 -17 392 -15 584 6 54 6 100 9 103 6 3 -3 -4 -92 -16 -198 -52
-479 -64 -995 -59 -2503 4 -1047 7 -1203 21 -1302 49 -327 216 -543 542 -702
265 -129 525 -189 870 -198 467 -13 788 65 1090 264 177 117 271 215 340 353
67 135 96 262 116 521 17 209 17 2445 1 2780 -22 445 -32 584 -53 782 -12 109
-19 200 -16 203 3 3 79 -2 170 -10 206 -20 257 -20 468 0 94 9 172 14 175 11
3 -2 -2 -74 -11 -158 -24 -235 -38 -1124 -36 -2254 1 -605 -2 -1085 -9 -1215
-41 -824 -176 -1144 -621 -1476 -321 -238 -612 -345 -1104 -406 -138 -17 -871
-17 -1025 0 -437 48 -711 138 -995 328 -364 243 -616 591 -680 938 -36 200
-38 263 -45 2031 -8 1791 -7 1783 -46 2159 l-7 69 34 -6 c19 -4 113 -14 209
-23z"/>
</g>
</svg>
